<svg xmlns="http://www.w3.org/2000/svg" viewBox="0 0 227.2 207.92"><defs><style>.cls-1{fill:#1d1d1b;} @media (prefers-color-scheme: dark) {
      .cls-1{
        fill: white;
      }
    }</style></defs><g id="Layer_2" data-name="Layer 2"><g id="Layer_1-2" data-name="Layer 1"><path class="cls-1" d="M227.2,8.76v194.9a4.25,4.25,0,0,1-6.82,3.39l-23.52-17.79-83.26-63L87.07,106.21,33.75,65.87a2.13,2.13,0,0,0-3.41,1.69v79.87a4.25,4.25,0,0,1-4.25,4.25H4.25A4.25,4.25,0,0,1,0,147.43V8.76A4.25,4.25,0,0,1,6.82,5.37L30.34,23.16l83.26,63,26.53,20.07,53.32,40.33a2.13,2.13,0,0,0,3.41-1.69V67.56a2.13,2.13,0,0,0-3.41-1.69l-23,17.43-24,18.13a4.26,4.26,0,0,1-5.14,0l-24-18.13-87-65.82-13.18-10L12.28,3.82A2.12,2.12,0,0,1,13.56,0L59,.07a4.24,4.24,0,0,1,2.56.86L141.31,61.3a4.26,4.26,0,0,0,5.14,0l50.41-38.14L220.38,5.37A4.25,4.25,0,0,1,227.2,8.76Z"/></g></g></svg>